<mxfile host="Electron" modified="2024-02-03T21:29:29.116Z" agent="Mozilla/5.0 (Windows NT 10.0; Win64; x64) AppleWebKit/537.36 (KHTML, like Gecko) draw.io/23.0.2 Chrome/120.0.6099.109 Electron/28.1.0 Safari/537.36" etag="aqt_kdocR43gdyZ86iPY" version="23.0.2" type="device">
  <diagram name="Page-1" id="9jARcqueaist3k1uiiFS">
    <mxGraphModel dx="1886" dy="876" grid="1" gridSize="10" guides="1" tooltips="1" connect="1" arrows="1" fold="1" page="1" pageScale="1" pageWidth="850" pageHeight="1100" math="0" shadow="0">
      <root>
        <mxCell id="0" />
        <mxCell id="1" parent="0" />
        <mxCell id="QqbcMEK9YiXdaME87XDr-7" style="edgeStyle=orthogonalEdgeStyle;rounded=0;orthogonalLoop=1;jettySize=auto;html=1;entryX=0;entryY=0.5;entryDx=0;entryDy=0;" edge="1" parent="1" source="QqbcMEK9YiXdaME87XDr-1" target="QqbcMEK9YiXdaME87XDr-6">
          <mxGeometry relative="1" as="geometry">
            <Array as="points">
              <mxPoint x="210" y="690" />
            </Array>
          </mxGeometry>
        </mxCell>
        <mxCell id="QqbcMEK9YiXdaME87XDr-1" value="Chase&lt;br&gt;&amp;lt;Selector&amp;gt;" style="rounded=1;whiteSpace=wrap;html=1;" vertex="1" parent="1">
          <mxGeometry x="90" y="400" width="250" height="60" as="geometry" />
        </mxCell>
        <mxCell id="QqbcMEK9YiXdaME87XDr-4" value="Select Target&lt;br&gt;&amp;lt;Primitive&amp;gt;" style="shape=process;whiteSpace=wrap;html=1;backgroundOutline=1;rounded=1;" vertex="1" parent="1">
          <mxGeometry x="410" y="540" width="120" height="60" as="geometry" />
        </mxCell>
        <mxCell id="QqbcMEK9YiXdaME87XDr-6" value="MoveTo&lt;br&gt;&amp;lt;Primitive&amp;gt;" style="shape=process;whiteSpace=wrap;html=1;backgroundOutline=1;rounded=1;" vertex="1" parent="1">
          <mxGeometry x="410" y="660" width="120" height="60" as="geometry" />
        </mxCell>
        <mxCell id="QqbcMEK9YiXdaME87XDr-9" value="" style="edgeStyle=orthogonalEdgeStyle;rounded=0;orthogonalLoop=1;jettySize=auto;html=1;entryX=0;entryY=0.5;entryDx=0;entryDy=0;" edge="1" parent="1" source="QqbcMEK9YiXdaME87XDr-1" target="QqbcMEK9YiXdaME87XDr-11">
          <mxGeometry relative="1" as="geometry">
            <mxPoint x="210" y="460" as="sourcePoint" />
            <mxPoint x="270" y="570" as="targetPoint" />
            <Array as="points">
              <mxPoint x="210" y="570" />
            </Array>
          </mxGeometry>
        </mxCell>
        <mxCell id="QqbcMEK9YiXdaME87XDr-10" style="edgeStyle=orthogonalEdgeStyle;rounded=0;orthogonalLoop=1;jettySize=auto;html=1;entryX=0;entryY=0.5;entryDx=0;entryDy=0;exitX=1;exitY=0.5;exitDx=0;exitDy=0;" edge="1" parent="1" source="QqbcMEK9YiXdaME87XDr-11" target="QqbcMEK9YiXdaME87XDr-4">
          <mxGeometry relative="1" as="geometry">
            <mxPoint x="350" y="570" as="sourcePoint" />
          </mxGeometry>
        </mxCell>
        <mxCell id="QqbcMEK9YiXdaME87XDr-11" value="!hasTarget&lt;br&gt;&amp;lt;Condition&amp;gt;" style="whiteSpace=wrap;html=1;aspect=fixed;" vertex="1" parent="1">
          <mxGeometry x="270" y="530" width="80" height="80" as="geometry" />
        </mxCell>
        <mxCell id="QqbcMEK9YiXdaME87XDr-13" value="Wander&lt;br&gt;&amp;lt;Selector&amp;gt;" style="rounded=1;whiteSpace=wrap;html=1;" vertex="1" parent="1">
          <mxGeometry x="100" y="830" width="250" height="60" as="geometry" />
        </mxCell>
        <mxCell id="QqbcMEK9YiXdaME87XDr-14" value="Idle&lt;br&gt;&amp;lt;Selector&amp;gt;" style="rounded=1;whiteSpace=wrap;html=1;" vertex="1" parent="1">
          <mxGeometry x="100" y="950" width="250" height="60" as="geometry" />
        </mxCell>
      </root>
    </mxGraphModel>
  </diagram>
</mxfile>
